<?xml version="1.0" encoding="UTF-8" standalone="no"?>
<svg
   xmlns:dc="http://purl.org/dc/elements/1.1/"
   xmlns:cc="http://creativecommons.org/ns#"
   xmlns:rdf="http://www.w3.org/1999/02/22-rdf-syntax-ns#"
   xmlns:svg="http://www.w3.org/2000/svg"
   xmlns="http://www.w3.org/2000/svg"
   xmlns:sodipodi="http://sodipodi.sourceforge.net/DTD/sodipodi-0.dtd"
   xmlns:inkscape="http://www.inkscape.org/namespaces/inkscape"
   width="210mm"
   height="297mm"
   viewBox="0 0 210 297"
   version="1.1"
   id="svg8"
   inkscape:version="1.0.1 (1.0.1+r73)"
   sodipodi:docname="every.svg">
  <style
     id="style12" />
  <defs
     id="defs2">
    <rect
       x="79.645655"
       y="169.01481"
       width="17.102219"
       height="18.011438"
       id="rect2842" />
  </defs>
  <sodipodi:namedview
     id="base"
     pagecolor="#ffffff"
     bordercolor="#666666"
     borderopacity="1.0"
     inkscape:pageopacity="0.0"
     inkscape:pageshadow="2"
     inkscape:zoom="0.98994949"
     inkscape:cx="516.36902"
     inkscape:cy="762.73393"
     inkscape:document-units="mm"
     inkscape:current-layer="layer1"
     inkscape:document-rotation="0"
     showgrid="false"
     inkscape:window-width="1920"
     inkscape:window-height="1051"
     inkscape:window-x="0"
     inkscape:window-y="0"
     inkscape:window-maximized="1" />
  <metadata
     id="metadata5">
    <rdf:RDF>
      <cc:Work
         rdf:about="">
        <dc:format>image/svg+xml</dc:format>
        <dc:type
           rdf:resource="http://purl.org/dc/dcmitype/StillImage" />
        <dc:title />
      </cc:Work>
    </rdf:RDF>
  </metadata>
  <g
     inkscape:label="Treuzfollenn 1"
     inkscape:groupmode="layer"
     id="layer1">
    <g
       id="g841"
       transform="matrix(2.3818512,0,0,2.3818512,-37.115059,-220.52892)">
      <circle
         style="fill:#00ff32;fill-opacity:0.3;stroke-width:0.00225501;paint-order:markers fill stroke"
         id="path10"
         cx="69.999992"
         cy="110"
         r="17.06348" />
      <path
         style="fill:#ffffff;fill-opacity:0.804293;stroke:none;stroke-width:0.045863px;stroke-linecap:butt;stroke-linejoin:miter;stroke-opacity:1"
         d="m 64.980139,118.66707 c -5.0039,2.88908 -5.0039,-20.223224 0,-17.33414 0,0 14.482219,7.20111 14.482219,8.66707 0,1.46596 -14.482219,8.66707 -14.482219,8.66707 z"
         id="path837"
         sodipodi:nodetypes="sszs" />
    </g>
    <path
       style="fill:#ff0000;fill-opacity:0.55;stroke:none;stroke-width:0.6489px;stroke-linecap:butt;stroke-linejoin:miter;stroke-opacity:1"
       d="m 10.851152,72.533445 c 4.258419,4.25842 71.08753,3.996092 75.083622,0 3.996093,-3.996095 4.102402,-58.005129 0,-62.107531 -4.102401,-4.1024014 -70.903145,-4.1804772 -75.083622,0 -4.1804753,4.180477 -4.2584177,57.849111 0,62.107531 z"
       id="path843"
       sodipodi:nodetypes="zzzsz" />
    <path
       style="fill:#fffbff;fill-opacity:0.55;stroke:none;stroke-width:0.222354px;stroke-linecap:butt;stroke-linejoin:miter;stroke-opacity:1"
       d="m 27.565883,23.128106 c -1.02142,2.084623 -0.9585,34.799467 0,36.755671 0.958503,1.956209 13.913081,2.008249 14.897078,0 0.984002,-2.008247 1.00273,-34.709203 0,-36.755671 -1.002724,-2.046468 -13.875653,-2.084623 -14.897078,0 z"
       id="path860"
       sodipodi:nodetypes="zzzsz" />
    <path
       style="fill:#fffbff;fill-opacity:0.55;stroke:none;stroke-width:0.222354px;stroke-linecap:butt;stroke-linejoin:miter;stroke-opacity:1"
       d="m 54.193003,23.128106 c -1.02142,2.084623 -0.9585,34.799467 0,36.755671 0.958502,1.956209 13.913081,2.008249 14.897078,0 0.984002,-2.008247 1.00273,-34.709203 0,-36.755671 -1.002725,-2.046468 -13.875654,-2.084623 -14.897078,0 z"
       id="path862"
       sodipodi:nodetypes="zzzsz" />
    <rect
       style="fill:#000000;fill-opacity:0.152088;stroke:none;stroke-width:0.006896;paint-order:markers fill stroke"
       id="rect874"
       width="140.37828"
       height="76.650505"
       x="42.091633"
       y="143.54173" />
    <g
       id="g2838"
       transform="matrix(0.60650362,0,0,0.60650362,140.76387,66.571814)"
       style="fill:#afafaf;fill-opacity:1">
      <path
         style="opacity:1;fill:#afafaf;fill-opacity:1;stroke:none;stroke-width:0.222354px;stroke-linecap:butt;stroke-linejoin:miter;stroke-opacity:1"
         d="m 26.530062,197.54781 c 2.08462,1.02142 34.799455,0.9585 36.755665,0 1.95621,-0.95851 2.00825,-13.91309 0,-14.89708 -2.00825,-0.984 -34.709205,-1.00273 -36.755665,0 -2.04647,1.00272 -2.08463,13.87565 0,14.89708 z"
         id="path2830"
         sodipodi:nodetypes="zzzsz" />
      <path
         style="opacity:1;fill:#afafaf;fill-opacity:1;stroke:none;stroke-width:0.222354px;stroke-linecap:butt;stroke-linejoin:miter;stroke-opacity:1"
         d="m 37.426934,171.75147 c -1.02142,2.08462 -0.9585,34.79946 0,36.75567 0.958502,1.95621 13.913083,2.00825 14.897083,0 0.984,-2.00825 1.00273,-34.7092 0,-36.75567 -1.00273,-2.04647 -13.875659,-2.08463 -14.897083,0 z"
         id="path2832"
         sodipodi:nodetypes="zzzsz" />
    </g>
    <path
       style="opacity:1;fill:#afafaf;fill-opacity:1;stroke:none;stroke-width:0.134859px;stroke-linecap:butt;stroke-linejoin:miter;stroke-opacity:1"
       d="m 46.892622,186.38527 c 1.26433,0.6195 21.106001,0.58134 22.292449,0 1.186449,-0.58134 1.218011,-8.43833 0,-9.03513 -1.218011,-0.5968 -21.051257,-0.60816 -22.292449,0 -1.241191,0.60816 -1.264335,8.41563 0,9.03513 z"
       id="path2834"
       sodipodi:nodetypes="zzzsz" />
    <text
       xml:space="preserve"
       id="text2840"
       style="font-style:normal;font-weight:normal;font-size:10.5833px;line-height:0;font-family:sans-serif;letter-spacing:0px;word-spacing:0px;white-space:pre;shape-inside:url(#rect2842);fill:#afafaf;fill-opacity:1;stroke:none;"
       transform="matrix(7.0024421,0,0,7.0024421,-487.20691,-1028.6625)"><tspan
         x="79.646484"
         y="176.547"><tspan
           style="font-style:normal;font-variant:normal;font-weight:normal;font-stretch:normal;line-height:1.4;font-family:Vemana2000;-inkscape-font-specification:Vemana2000;fill:#afafaf;fill-opacity:1">10'</tspan></tspan></text>
  </g>
</svg>
