<?xml version="1.0" encoding="UTF-8" standalone="no"?>
<svg
   xmlns:dc="http://purl.org/dc/elements/1.1/"
   xmlns:cc="http://creativecommons.org/ns#"
   xmlns:rdf="http://www.w3.org/1999/02/22-rdf-syntax-ns#"
   xmlns:svg="http://www.w3.org/2000/svg"
   xmlns="http://www.w3.org/2000/svg"
   xmlns:sodipodi="http://sodipodi.sourceforge.net/DTD/sodipodi-0.dtd"
   xmlns:inkscape="http://www.inkscape.org/namespaces/inkscape"
   width="75"
   height="75"
   viewBox="0 0 19.843749 19.84375"
   version="1.1"
   id="svg2203"
   sodipodi:docname="playing.svg"
   inkscape:version="1.0.1 (1.0.1+r73)">
  <defs
     id="defs2197" />
  <sodipodi:namedview
     id="base"
     pagecolor="#ffffff"
     bordercolor="#666666"
     borderopacity="1.0"
     inkscape:pageopacity="0.0"
     inkscape:pageshadow="2"
     inkscape:zoom="7.9195959"
     inkscape:cx="32.24996"
     inkscape:cy="28.730692"
     inkscape:document-units="mm"
     inkscape:current-layer="layer1"
     inkscape:document-rotation="0"
     showgrid="false"
     units="px"
     inkscape:window-width="1920"
     inkscape:window-height="1051"
     inkscape:window-x="0"
     inkscape:window-y="0"
     inkscape:window-maximized="1" />
  <metadata
     id="metadata2200">
    <rdf:RDF>
      <cc:Work
         rdf:about="">
        <dc:format>image/svg+xml</dc:format>
        <dc:type
           rdf:resource="http://purl.org/dc/dcmitype/StillImage" />
        <dc:title />
      </cc:Work>
    </rdf:RDF>
  </metadata>
  <g
     inkscape:label="Treuzfollenn 1"
     inkscape:groupmode="layer"
     id="layer1"
     transform="translate(1.0629859,-0.06598957)">
    <path
       style="fill:#ff6400;fill-opacity:0.55000001;stroke:none;stroke-width:1.5;stroke-linecap:butt;stroke-linejoin:miter;stroke-miterlimit:4;stroke-dasharray:none;stroke-opacity:1"
       d="m -0.29041579,17.570063 c 1.03958493,1.039586 17.35421379,0.975545 18.32975679,0 0.975545,-0.975544 1.001498,-14.1604769 0,-15.161974 -1.001496,-1.0014971 -17.30919951,-1.0205573 -18.32975678,0 -1.02055672,1.0205573 -1.03958442,14.12239 -10e-9,15.161974 z"
       id="path843"
       sodipodi:nodetypes="zzzsz" />
    <g
       id="g2808"
       style="stroke-width:1;stroke-miterlimit:4;stroke-dasharray:none"
       transform="matrix(1.5,0,0,1.5,0.53149291,-0.03299479)">
      <path
         style="fill:#fffbff;fill-opacity:0.65;stroke:none;stroke-width:1;stroke-linecap:butt;stroke-linejoin:miter;stroke-miterlimit:4;stroke-dasharray:none;stroke-opacity:1"
         d="m 2.1723785,3.694668 c -0.1662358,0.3392719 -0.1559956,5.6636035 0,5.9819752 0.155996,0.3183724 2.26435,0.3268418 2.4244953,0 0.160146,-0.3268416 0.1631939,-5.6489131 0,-5.9819752 -0.1631932,-0.3330621 -2.2582588,-0.3392719 -2.4244953,0 z"
         id="path860"
         sodipodi:nodetypes="zzzsz" />
      <path
         style="fill:#fffbff;fill-opacity:0.65;stroke:none;stroke-width:1;stroke-linecap:butt;stroke-linejoin:miter;stroke-miterlimit:4;stroke-dasharray:none;stroke-opacity:1"
         d="m 6.5059347,3.694668 c -0.1662358,0.3392719 -0.1559956,5.6636035 0,5.9819752 0.155996,0.3183724 2.2643501,0.3268418 2.4244954,0 0.160146,-0.3268416 0.1631939,-5.6489131 0,-5.9819752 -0.1631932,-0.3330621 -2.2582588,-0.3392719 -2.4244954,0 z"
         id="path862"
         sodipodi:nodetypes="zzzsz" />
    </g>
    <rect
       style="fill:#000000;fill-opacity:0;stroke-width:1.5;stroke-miterlimit:4;stroke-dasharray:none;paint-order:markers fill stroke"
       id="rect2798"
       width="19.84375"
       height="19.84375"
       x="-1.0629859"
       y="0.065989576" />
  </g>
</svg>
