<?xml version="1.0" encoding="UTF-8" standalone="no"?>
<svg
   xmlns:dc="http://purl.org/dc/elements/1.1/"
   xmlns:cc="http://creativecommons.org/ns#"
   xmlns:rdf="http://www.w3.org/1999/02/22-rdf-syntax-ns#"
   xmlns:svg="http://www.w3.org/2000/svg"
   xmlns="http://www.w3.org/2000/svg"
   xmlns:sodipodi="http://sodipodi.sourceforge.net/DTD/sodipodi-0.dtd"
   xmlns:inkscape="http://www.inkscape.org/namespaces/inkscape"
   width="75"
   height="75"
   viewBox="0 0 19.843749 19.84375"
   version="1.1"
   id="svg2203"
   sodipodi:docname="playing.svg"
   inkscape:version="1.0.1 (1.0.1+r73)">
  <defs
     id="defs2197" />
  <sodipodi:namedview
     id="base"
     pagecolor="#ffffff"
     bordercolor="#666666"
     borderopacity="1.0"
     inkscape:pageopacity="0.0"
     inkscape:pageshadow="2"
     inkscape:zoom="7.9195959"
     inkscape:cx="32.24996"
     inkscape:cy="28.730692"
     inkscape:document-units="mm"
     inkscape:current-layer="layer1"
     inkscape:document-rotation="0"
     showgrid="false"
     units="px"
     inkscape:window-width="1920"
     inkscape:window-height="1051"
     inkscape:window-x="0"
     inkscape:window-y="0"
     inkscape:window-maximized="1" />
  <metadata
     id="metadata2200">
    <rdf:RDF>
      <cc:Work
         rdf:about="">
        <dc:format>image/svg+xml</dc:format>
        <dc:type
           rdf:resource="http://purl.org/dc/dcmitype/StillImage" />
        <dc:title />
      </cc:Work>
    </rdf:RDF>
  </metadata>
  <g
     inkscape:label="Treuzfollenn 1"
     inkscape:groupmode="layer"
     id="layer1"
     transform="translate(1.0629859,-0.06598957)">
    <g
       id="g2822"
       transform="matrix(1.5,0,0,1.5,0.53149291,-0.03299479)">
      <g
         id="g2814">
        <path
           style="fill:#ff0000;fill-opacity:0.55;stroke:none;stroke-width:0.105608px;stroke-linecap:butt;stroke-linejoin:miter;stroke-opacity:1"
           d="m -0.54793913,11.735372 c 0.69305662,0.693057 11.56947613,0.650363 12.21983813,0 0.650363,-0.650363 0.667665,-9.4403181 0,-10.1079828 -0.667664,-0.66766472 -11.53946661,-0.68037153 -12.21983813,0 -0.68037117,0.6803715 -0.69305627,9.4149268 0,10.1079828 z"
           id="path843"
           sodipodi:nodetypes="zzzsz" />
        <g
           id="g2808">
          <path
             style="fill:#fffbff;fill-opacity:0.65;stroke:none;stroke-width:0.0361881px;stroke-linecap:butt;stroke-linejoin:miter;stroke-opacity:1"
             d="m 2.1723785,3.694668 c -0.1662358,0.3392719 -0.1559956,5.6636035 0,5.9819752 0.155996,0.3183724 2.26435,0.3268418 2.4244953,0 0.160146,-0.3268416 0.1631939,-5.6489131 0,-5.9819752 -0.1631932,-0.3330621 -2.2582588,-0.3392719 -2.4244953,0 z"
             id="path860"
             sodipodi:nodetypes="zzzsz" />
          <path
             style="fill:#fffbff;fill-opacity:0.65;stroke:none;stroke-width:0.0361881px;stroke-linecap:butt;stroke-linejoin:miter;stroke-opacity:1"
             d="m 6.5059347,3.694668 c -0.1662358,0.3392719 -0.1559956,5.6636035 0,5.9819752 0.155996,0.3183724 2.2643501,0.3268418 2.4244954,0 0.160146,-0.3268416 0.1631939,-5.6489131 0,-5.9819752 -0.1631932,-0.3330621 -2.2582588,-0.3392719 -2.4244954,0 z"
             id="path862"
             sodipodi:nodetypes="zzzsz" />
        </g>
      </g>
      <rect
         style="fill:#000000;fill-opacity:0;stroke-width:0.00740763;paint-order:markers fill stroke"
         id="rect2798"
         width="13.229167"
         height="13.229167"
         x="-1.0629859"
         y="0.065989576" />
    </g>
  </g>
</svg>
